<?xml version="1.0" encoding="UTF-8" standalone="no"?>
<svg
   width="512"
   height="512"
   viewBox="0 0 512 512"
   version="1.1"
   id="svg1"
   sodipodi:docname="favicon (copy).svg"
   inkscape:export-filename="favicon (copy).png"
   inkscape:export-xdpi="96"
   inkscape:export-ydpi="96"
   inkscape:version="1.3.2 (091e20ef0f, 2023-11-25)"
   xmlns:inkscape="http://www.inkscape.org/namespaces/inkscape"
   xmlns:sodipodi="http://sodipodi.sourceforge.net/DTD/sodipodi-0.dtd"
   xmlns="http://www.w3.org/2000/svg"
   xmlns:svg="http://www.w3.org/2000/svg">
  <defs
     id="defs1">
    <clipPath
       clipPathUnits="userSpaceOnUse"
       id="clipPath2">
      <rect
         style="font-variation-settings:normal;opacity:1;vector-effect:none;fill:#000000;fill-opacity:1;fill-rule:evenodd;stroke-width:0.999999;stroke-linecap:butt;stroke-linejoin:miter;stroke-miterlimit:4;stroke-dasharray:none;stroke-dashoffset:0;stroke-opacity:1;-inkscape-stroke:none;stop-color:#000000;stop-opacity:1"
         id="rect3"
         width="423.32254"
         height="111.51662"
         x="51.815823"
         y="362.84814" />
    </clipPath>
  </defs>
  <sodipodi:namedview
     id="namedview1"
     pagecolor="#505050"
     bordercolor="#eeeeee"
     borderopacity="1"
     inkscape:showpageshadow="0"
     inkscape:pageopacity="0"
     inkscape:pagecheckerboard="0"
     inkscape:deskcolor="#505050"
     inkscape:zoom="0.89802078"
     inkscape:cx="321.26205"
     inkscape:cy="216.58741"
     inkscape:window-width="1366"
     inkscape:window-height="732"
     inkscape:window-x="0"
     inkscape:window-y="0"
     inkscape:window-maximized="1"
     inkscape:current-layer="svg1" />
  <rect
     style="font-variation-settings:normal;opacity:1;vector-effect:none;fill:#f9f3e4;fill-opacity:1;fill-rule:evenodd;stroke-width:13.357;stroke-linecap:butt;stroke-linejoin:miter;stroke-miterlimit:4;stroke-dasharray:none;stroke-dashoffset:0;stroke-opacity:1;-inkscape-stroke:none;stop-color:#000000;stop-opacity:1"
     id="rect1"
     width="412"
     height="412"
     x="50"
     y="50"
     ry="57.40519" />
  <path
     fill="white"
     d="m 256.56788,413.16075 c -22.21364,-13.98636 -62.52727,-24.68181 -90.5,-24.68181 -27.15,0 -55.12272,4.93635 -78.15909,17.27727 -1.645452,0.82272 -2.468183,0.82272 -4.113635,0.82272 -4.113636,0 -8.227271,-4.11363 -8.227271,-8.22726 V 158.1153 c 9.872723,-7.40455 20.568177,-12.34091 32.909086,-16.45454 18.26455,-5.75909 38.33909,-8.22727 57.59091,-8.22727 32.08636,0 66.64091,6.58182 90.5,24.68181 23.85909,-18.09999 58.41364,-24.68181 90.5,-24.68181 19.25182,0 39.32636,2.46818 57.59091,8.22727 12.34091,4.11363 23.03637,9.04999 32.90909,16.45454 v 240.23637 c 0,4.11363 -4.11364,8.22726 -8.22727,8.22726 -1.64545,0 -2.46818,0 -4.11364,-0.82272 -23.03637,-12.34092 -51.00909,-17.27727 -78.15909,-17.27727 -27.97273,0 -68.28636,10.69545 -90.5,24.68181 m 0,-222.13636 v 189.22727 c 22.21364,-13.98636 62.52727,-24.68182 90.5,-24.68182 19.74546,0 39.49091,2.46819 57.59091,8.22728 V 174.56984 c -18.1,-5.75908 -37.84545,-8.22727 -57.59091,-8.22727 -27.97273,0 -68.28636,10.69546 -90.5,24.68182 m 16.45454,57.59091 c 18.26455,-11.18909 42.78183,-16.45455 74.04546,-16.45455 14.97364,0 28.96,1.48091 41.13636,4.60728 v -25.50455 c -14.31545,-2.46818 -28.13727,-3.78454 -41.13636,-3.78454 q -43.68682,0 -74.04546,13.82182 z m 74.04546,2.79727 c -28.13728,0 -52.81909,4.27818 -74.04546,12.99909 v 27.80819 c 18.26455,-10.69545 42.78183,-16.29001 74.04546,-16.29001 17.11272,0 30.93454,1.31637 41.13636,3.94909 v -24.68182 c -14.31545,-2.63271 -28.13727,-3.78454 -41.13636,-3.78454 m 41.13636,47.7182 c -14.31545,-2.63273 -28.13727,-3.9491 -41.13636,-3.9491 -30.11182,0 -54.79363,4.44273 -74.04546,13.16364 v 27.80818 c 18.26455,-10.86 42.78183,-16.29 74.04546,-16.29 17.11272,0 30.93454,1.31635 41.13636,3.94909 z"
     id="path1-5"
     style="fill:#291f0a;fill-opacity:1;stroke-width:16.4545"
     clip-path="url(#clipPath2)"
     transform="matrix(0.86111786,0,0,0.86187844,34.989948,35.359116)" />
  <path
     fill="white"
     d="M 255.99999,376.54545 C 236.85454,364.49091 202.10909,355.27272 178,355.27272 c -23.4,0 -47.50909,4.25453 -67.36364,14.89091 -1.41818,0.70909 -2.12727,0.70909 -3.54545,0.70909 -3.54545,0 -7.09091,-3.54546 -7.09091,-7.09091 V 156.72727 c 8.50909,-6.38182 17.72727,-10.63636 28.36363,-14.18182 15.74183,-4.96363 33.04364,-7.0909 49.63637,-7.0909 27.65454,0 57.43636,5.67273 77.99999,21.27272 20.56365,-15.59999 50.34546,-21.27272 78.00001,-21.27272 16.59273,0 33.89454,2.12727 49.63636,7.0909 10.63637,3.54546 19.85455,7.8 28.36364,14.18182 v 207.05454 c 0,3.54545 -3.54546,7.09091 -7.09091,7.09091 -1.41818,0 -2.12728,0 -3.54546,-0.70909 C 381.50909,359.52725 357.4,355.27272 334,355.27272 c -24.10909,0 -58.85455,9.21819 -78.00001,21.27273 m 0,-191.45454 v 163.0909 C 275.14545,336.12726 309.89091,326.90908 334,326.90908 c 17.01818,0 34.03636,2.12728 49.63636,7.09091 V 170.90908 c -15.6,-4.96363 -32.61818,-7.0909 -49.63636,-7.0909 -24.10909,0 -58.85455,9.21819 -78.00001,21.27273 m 14.18182,49.63636 c 15.74182,-9.64364 36.87274,-14.18183 63.81819,-14.18183 12.90546,0 24.96,1.27637 35.45454,3.97092 V 202.53454 C 357.11636,200.40727 345.20364,199.27273 334,199.27273 q -37.65273,0 -63.81819,11.91272 z M 334,237.13818 c -24.25092,0 -45.52364,3.68727 -63.81819,11.20363 v 23.96727 c 15.74182,-9.21818 36.87274,-14.04 63.81819,-14.04 14.74908,0 26.66181,1.13455 35.45454,3.40364 V 240.39999 C 357.11636,238.1309 345.20364,237.13818 334,237.13818 m 35.45454,41.12727 c -12.33818,-2.26909 -24.2509,-3.40364 -35.45454,-3.40364 -25.95273,0 -47.22546,3.82909 -63.81819,11.34546 v 23.96727 c 15.74182,-9.36 36.87274,-14.04 63.81819,-14.04 14.74908,0 26.66181,1.13454 35.45454,3.40364 z"
     id="path1"
     style="display:inline;fill:#d2a238;fill-opacity:1;stroke-width:14.1817" />
</svg>
