<svg xmlns="http://www.w3.org/2000/svg" width="36" height="36" viewBox="0 0 9.525 9.525" ><path d="M4.286 7.144h.953V4.286h-.953zm.476-3.81q.202 0 .34-.137.137-.137.137-.339 0-.202-.137-.339-.137-.137-.339-.137-.202 0-.339.137-.137.137-.137.339 0 .202.137.34.138.138.339.137m0 6.191q-.988 0-1.857-.375-.869-.375-1.512-1.018Q.75 7.489.375 6.62 0 5.75 0 4.762q0-.988.375-1.857.376-.87 1.018-1.512Q2.035.75 2.905.375 3.775 0 4.762 0 5.75 0 6.62.375q.87.375 1.512 1.018.642.642 1.018 1.512.376.87.375 1.857-.002.988-.375 1.857-.374.87-1.018 1.512-.644.642-1.512 1.018-.868.376-1.857.375m0-.952q1.595 0 2.703-1.107 1.107-1.107 1.107-2.703 0-1.595-1.107-2.703Q6.358.952 4.762.952 3.167.952 2.06 2.06.952 3.167.952 4.762q0 1.595 1.107 2.703 1.107 1.107 2.703 1.107m0-3.81"/></svg>