<svg xmlns="http://www.w3.org/2000/svg" width="36" height="36" viewBox="0 0 9.525 9.525" ><path d="M4.52 1.202V.231c.001-.134.109-.242.243-.242s.242.108.243.242v.971c-.001.134-.109.242-.243.242s-.242-.108-.243-.242m2.751 3.56a2.51 2.51 0 0 1-2.508 2.509 2.51 2.51 0 0 1-2.508-2.509 2.51 2.51 0 0 1 2.508-2.509 2.51 2.51 0 0 1 2.508 2.509m-.485 0c0-.818-.493-1.556-1.249-1.869s-1.626-.14-2.204.439-.752 1.449-.439 2.205 1.051 1.249 1.869 1.249c1.117-.001 2.021-.906 2.023-2.023M2.002 2.344c.061.065.152.092.238.07s.153-.089.175-.175-.005-.177-.07-.238l-.647-.647c-.096-.089-.245-.086-.337.006s-.095.241-.006.337zm0 4.836l-.647.647c-.065.061-.092.152-.07.238s.089.153.175.175.177-.005.238-.07l.647-.647c.065-.061.092-.152.07-.238s-.089-.153-.175-.175-.177.005-.238.07m5.35-4.765c.064 0 .126-.026.172-.071l.647-.647c.089-.096.086-.245-.006-.337s-.241-.095-.337-.006l-.647.647c-.069.069-.09.174-.053.264s.126.15.224.15m.172 4.765c-.096-.089-.245-.086-.337.006s-.095.241-.006.337l.647.647c.096.089.245.086.337-.006s.095-.241.006-.337zM1.445 4.762c0-.134-.109-.243-.243-.243H.231c-.134 0-.242.109-.242.243s.108.242.242.243h.971c.134 0 .243-.109.243-.243M4.762 8.08c-.064 0-.126.026-.172.071s-.071.107-.071.172v.971c.001.134.109.242.243.242s.242-.108.243-.242v-.971c0-.064-.026-.126-.071-.172s-.107-.071-.172-.071m4.531-3.56h-.971c-.134 0-.242.109-.242.243s.108.242.242.243h.971c.134 0 .242-.109.242-.243s-.108-.242-.242-.243"/></svg>