<svg xmlns="http://www.w3.org/2000/svg" width="36" height="36" viewBox="0 0 9.525 9.525" ><path d="M.529 5.291a.53.53 0 0 0 .529-.529.53.53 0 0 0-.529-.529.53.53 0 0 0-.529.529.53.53 0 0 0 .529.529m0 2.117a.53.53 0 0 0 .529-.529.53.53 0 0 0-.529-.529.53.53 0 0 0-.529.529.53.53 0 0 0 .529.529m0-4.233a.53.53 0 0 0 .529-.529.53.53 0 0 0-.529-.529.53.53 0 0 0-.529.529.53.53 0 0 0 .529.529m2.117 2.117h6.35a.53.53 0 0 0 .529-.529.53.53 0 0 0-.529-.529h-6.35a.53.53 0 0 0-.529.529.53.53 0 0 0 .529.529m0 2.117h6.35a.53.53 0 0 0 .529-.529.53.53 0 0 0-.529-.529h-6.35a.53.53 0 0 0-.529.529.53.53 0 0 0 .529.529m-.529-4.763a.53.53 0 0 0 .529.529h6.35a.53.53 0 0 0 .529-.529.53.53 0 0 0-.529-.529h-6.35a.53.53 0 0 0-.529.529M.529 5.291a.53.53 0 0 0 .529-.529.53.53 0 0 0-.529-.529.53.53 0 0 0-.529.529.53.53 0 0 0 .529.529m0 2.117a.53.53 0 0 0 .529-.529.53.53 0 0 0-.529-.529.53.53 0 0 0-.529.529.53.53 0 0 0 .529.529m0-4.233a.53.53 0 0 0 .529-.529.53.53 0 0 0-.529-.529.53.53 0 0 0-.529.529.53.53 0 0 0 .529.529m2.117 2.117h6.35a.53.53 0 0 0 .529-.529.53.53 0 0 0-.529-.529h-6.35a.53.53 0 0 0-.529.529.53.53 0 0 0 .529.529m0 2.117h6.35a.53.53 0 0 0 .529-.529.53.53 0 0 0-.529-.529h-6.35a.53.53 0 0 0-.529.529.53.53 0 0 0 .529.529m-.529-4.763a.53.53 0 0 0 .529.529h6.35a.53.53 0 0 0 .529-.529.53.53 0 0 0-.529-.529h-6.35a.53.53 0 0 0-.529.529"/></svg>